Patient4_TMGait_0pt3_03_right_23_EMG.mot
version=1
nRows=13
nColumns=33
inDegrees=no
endheader
time	1LAddLong	2LGlutMax	3LGlutMed	4LIliopsoas	5LSemiMemb	6LBicFemLong	7LRecFem	8LVastMed	9LVastLat	10LGasMed	11LTibAnt	12lTibPost	13LPeroneusLong	14LSol	15LExtDigLong	16LFlexDigLong	17RAddLong	18RGlutMax	19RGlutMed	20RIliopsoas	21RSemiMemb	22RBicFemLong	23RRecFem	24RVastMed	25RVastLat	26RGasMed	27RTibAnt	28RTibPost	29RPeroneusLong	30RSol	31RExtDigLong	32RFlexDigLong
43.622	0.002289	-0.15167	-0.032349	0.016174	-0.034637	-0.094299	0.036316	0.000305	0.04303	-0.030823	-0.006409	-0.02121	0.12573	0.27344	0.011292	0.40085	-0.013123	0.54962	0.009003	0.090179	-0.05127	0.037231	0.062714	0.038147	0.073242	0.005798	-0.13199	-0.007324	0.61569	0.031433	-0.004425	-0.010529
43.623	0.008087	-0.15137	-0.019531	0.016479	-0.02594	-0.084686	0.047455	-0.001373	0.037384	-0.022888	-0.00412	-0.016785	0.054016	-0.5603	-0.026245	-0.35751	0.025024	0.43198	0.046539	0.089264	-0.13092	-0.11139	0.004883	0.000763	0.07843	-0.010223	-0.10468	-0.002136	0.1738	-0.002289	-0.002289	-0.000458
43.624	0.000458	-0.17075	-0.024567	0.014496	-0.020142	-0.048981	0.029602	0.002899	0.033264	0.009308	-0.000916	-0.049438	0.011444	-0.53894	-0.028381	-0.13916	0.018463	0.43198	0.26749	0.036011	-0.007324	-0.2121	-0.046082	-0.007019	0.074463	-0.011292	-0.025635	-0.002747	0.13306	0.020905	0.000763	-0.000305
43.625	-0.001373	-0.11124	-0.030975	0.024719	0.014496	-0.013428	0.032196	0.005951	0.033112	-0.014038	0.000763	-0.015564	0.001831	-0.15045	-0.024109	-0.17578	-0.002289	0.45563	0.19852	0.023651	-0.11688	-0.20523	0.002899	-0.10315	0.029449	-0.014191	-0.067444	-0.002289	0.43411	0.02533	-0.001831	0.002136
43.626	0.011597	-0.11627	-0.02655	0.019073	0.019836	0.006256	0.0354	0.000153	0.044403	-0.010681	-0.006409	-0.010986	-0.007629	-0.14633	0.002747	-0.093231	-0.02533	0.40237	0.01358	0.045471	-0.27893	-0.17716	0.017395	-0.009155	0.046234	-0.005188	-0.067291	-0.009613	0.21179	0.050201	-0.007324	-0.003052
43.627	0.001831	-0.13016	-0.014496	0.014954	0.024261	0.053101	0.010529	-0.001221	0.041962	-0.00824	0.004883	-0.010834	0.001526	-0.20432	0.031891	0.13397	-0.064545	0.21225	-0.36819	0.046387	-0.34531	-0.007782	-0.050507	0.14358	0.077057	0.030365	0.062714	0.007477	-0.63187	0.18936	0.006866	-0.005798
43.628	0.00351	-0.15182	-0.026855	0.013733	0.024567	0.049591	0.047455	0.002289	0.044403	0.011597	-0.003204	-0.001373	-0.016937	-0.18921	0.030212	-0.27939	-0.097198	0.00824	-0.34454	0.022278	0.24048	0.12817	-0.14191	0.22095	0.075226	0.028229	-0.028839	-0.000153	0.48828	0.071869	-0.000458	-0.012512
43.629	0.002289	-0.15488	-0.015717	0.022888	0.009308	0.035706	0.006256	0.003204	0.04303	-0.005035	0.003815	-0.003662	0.006561	-0.11276	-0.000458	0.013733	-0.05661	-0.094147	0.023193	-0.029449	0.37293	0.10025	-0.057831	0.071411	0.075073	0.011597	-0.11047	-0.006561	0.22278	-0.047913	-0.001526	-0.016785
43.63	0.004425	-0.14206	-0.025024	0.007629	-0.019989	0.072174	-0.008545	-0.011749	0.05722	-0.032043	-0.001221	-0.005341	0.045776	0.058441	-0.001068	-0.065002	-0.005493	-0.081482	-0.097046	-0.072327	0.22659	0.054016	0.002289	-0.003815	0.032196	0.019684	-0.030518	-0.007172	0.12009	-0.09964	-0.003357	-0.009766
43.631	-0.000763	-0.15335	-0.028381	0.021973	-0.028687	0.061951	0.018921	-0.002441	0.039215	-0.019989	0.009003	-0.002136	0.04303	0.11993	-0.007324	0.004578	0.020142	-0.14252	-0.12619	0.001373	0.14526	-0.052795	0.031738	0.002594	0.03952	0.009613	0.031281	-0.00885	0.41733	-0.12192	-0.004272	-0.010376
43.632	-0.005798	-0.11948	-0.001526	0.00946	-0.003967	-0.028381	0.04425	-0.002289	0.0177	0.011902	-0.006104	-0.000763	0.017395	0.094604	0.011749	0.035858	0.038147	-0.1004	0.066071	0.049591	0.084229	0.037537	0.000916	0.003815	0.030365	-0.046234	0.056	-0.011749	0.52002	-0.056915	-0.005035	-0.001831
43.633	0.001221	-0.1326	-0.005646	0.021057	0.025635	-0.093842	0.023193	-0.006409	0.03479	0.017242	0.003204	0.00473	0.023041	0.10864	-0.005493	-0.011292	0.049286	-0.12848	-0.15457	0.10651	-0.024109	0.22842	0.044098	-0.15701	0.020599	-0.068359	0.010071	-0.007477	0.059967	0.019684	-0.002136	-0.001678
43.634	0.007172	-0.1178	0.048523	0.003967	0.021973	-0.1004	0.028076	-0.005646	0.037231	0.033569	-0.002441	0.002289	0.041962	0.094299	-0.016937	-0.010834	0.021973	-0.11887	-0.16892	0.094147	-0.16052	0.30838	0.07431	-0.17258	0.00412	-0.067444	-0.034027	-0.023956	0.072327	0.027313	0.000153	-0.003357
